<svg width="56" height="56" viewBox="0 0 56 56" fill="none" xmlns="http://www.w3.org/2000/svg">
<rect width="56" height="56" rx="16" fill="#F5B544" fill-opacity="0.1"/>
<path fill-rule="evenodd" clip-rule="evenodd" d="M26 18C23.2005 18 20.9167 20.2023 20.9167 22.9375C20.9167 25.6727 23.2005 27.875 26 27.875C28.7995 27.875 31.0834 25.6727 31.0834 22.9375C31.0834 20.2023 28.7995 18 26 18ZM26 20C27.7109 20 29.0834 21.3235 29.0834 22.9375C29.0834 24.5515 27.7109 25.875 26 25.875C24.2892 25.875 22.9167 24.5515 22.9167 22.9375C22.9167 21.3235 24.2892 20 26 20ZM35 25C35.5128 25 35.9355 25.386 35.9933 25.8834L36 26V27H37C37.5523 27 38 27.4477 38 28C38 28.5128 37.614 28.9355 37.1166 28.9933L37 29H36V30C36 30.5523 35.5523 31 35 31C34.4872 31 34.0645 30.614 34.0067 30.1166L34 30V29H33C32.4477 29 32 28.5523 32 28C32 27.4872 32.386 27.0645 32.8834 27.0067L33 27H34V26C34 25.4477 34.4477 25 35 25ZM22.8412 29.2761L23.0492 29.2417C25.004 28.9195 26.996 28.9195 28.9509 29.2417L29.1587 29.276C31.9541 29.7369 34 32.2145 34 35.1115C34 36.6996 32.7412 38 31.1719 38H20.8281C19.2588 38 18 36.6996 18 35.1115C18 32.2145 20.046 29.7369 22.8412 29.2761ZM28.8331 31.2493L28.6255 31.2151C26.8862 30.9283 25.1139 30.9283 23.3747 31.215L23.1667 31.2494C21.3487 31.5491 20 33.1823 20 35.1115C20 35.6094 20.3782 36 20.8281 36H31.1719C31.6218 36 32 35.6093 32 35.1115C32 33.1823 30.6513 31.5491 28.8331 31.2493Z" fill="#091B3D"/>
</svg>
