<svg width="20" height="20" viewBox="0 0 20 20" fill="none" xmlns="http://www.w3.org/2000/svg">
<path fill-rule="evenodd" clip-rule="evenodd" d="M5.37201 2.43584C8.4284 1.85472 11.5716 1.85472 14.628 2.43584C16.0311 2.70261 17.141 3.71037 17.5194 5.01771L17.5676 5.18452C18.1441 7.17665 18.1441 9.2843 17.5676 11.2765L17.5194 11.4433C17.141 12.7506 16.0311 13.7584 14.628 14.0251C11.5716 14.6063 8.4284 14.6063 5.37201 14.0251C3.96895 13.7584 2.85896 12.7506 2.48064 11.4433L2.43237 11.2765C1.85588 9.2843 1.85588 7.17665 2.43237 5.18451L2.48064 5.01771C2.85896 3.71036 3.96895 2.70261 5.37201 2.43584ZM15.0016 0.471041C11.6984 -0.157009 8.3016 -0.157009 4.99843 0.471041C2.87872 0.874081 1.15371 2.40827 0.559462 4.46176L0.511193 4.62856C-0.170398 6.98388 -0.170398 9.4771 0.511193 11.8324L0.559462 11.9992C1.15371 14.0527 2.87872 15.5869 4.99843 15.9899C6.32129 16.2415 7.65915 16.3922 9 16.4423V18H7.36386C6.81157 18 6.36386 18.4477 6.36386 19C6.36386 19.5523 6.81157 20 7.36386 20H12.6361C13.1884 20 13.6361 19.5523 13.6361 19C13.6361 18.4477 13.1884 18 12.6361 18H11V16.4423C12.3409 16.3922 13.6787 16.2415 15.0016 15.9899C17.1213 15.5869 18.8463 14.0527 19.4405 11.9992L19.4888 11.8324C20.1704 9.4771 20.1704 6.98388 19.4888 4.62856L19.4405 4.46176C18.8463 2.40827 17.1213 0.874081 15.0016 0.471041ZM12.5598 10.157L12.5285 10.1817L12.5281 10.182C12.3689 10.3075 12.1799 10.4566 12.0002 10.5625C11.7834 10.6902 11.4556 10.8332 11.0437 10.7809C10.6317 10.7286 10.3501 10.5082 10.1721 10.3303C10.0245 10.1827 9.8786 9.991 9.7557 9.8295L9.7316 9.7978L8.6775 8.4143L6.61867 10.0357C6.18477 10.3773 5.55604 10.3026 5.21434 9.8687C4.87265 9.4348 4.9474 8.8061 5.38129 8.4644L7.44013 6.84304L7.47145 6.81836C7.63078 6.69272 7.81996 6.54355 7.99978 6.43756C8.2165 6.30979 8.5444 6.1668 8.9563 6.21912C9.3682 6.27143 9.6499 6.49182 9.8278 6.66972C9.97506 6.81686 10.1204 7.00788 10.2431 7.16907L10.2442 7.17051L10.2684 7.20223L11.3225 8.5857L13.3813 6.96438C13.8152 6.62269 14.4439 6.69743 14.7856 7.13133C15.1273 7.56522 15.0526 8.194 14.6187 8.5357L12.5598 10.157Z" fill="#091B3D" fill-opacity="0.4"/>
</svg>
