<svg width="20" height="20" viewBox="0 0 20 20" fill="none" xmlns="http://www.w3.org/2000/svg">
<path fill-rule="evenodd" clip-rule="evenodd" d="M1.67591 0.0156116C1.13223 -0.0814484 0.612794 0.280612 0.515734 0.824302C0.418674 1.36799 0.780734 1.88742 1.32442 1.98448C2.20131 2.14103 2.91715 2.84856 3.08966 3.79114L3.1841 4.30717C2.76551 4.96266 2.44955 5.69369 2.25846 6.47654C1.79585 8.3718 1.79585 10.355 2.25846 12.2502C2.58675 13.5952 3.28362 14.7871 4.23626 15.7059C4.12624 15.8659 4.03349 16.0381 3.95997 16.2194C3.77042 16.6871 3.71533 17.1993 3.80006 17.6964C3.88481 18.1937 4.10659 18.659 4.443 19.0362C4.77965 19.4137 5.21755 19.6875 5.70688 19.821C6.19644 19.9545 6.71333 19.9408 7.19513 19.7818C7.67666 19.6229 8.09968 19.3267 8.41658 18.9327C8.69178 18.5905 8.87748 18.1863 8.96068 17.7575C10.0626 17.9124 11.1793 17.9199 12.2827 17.78C12.3428 18.1365 12.4738 18.4791 12.6701 18.7861C12.9431 19.213 13.3323 19.5545 13.7946 19.7658C14.2573 19.9772 14.771 20.048 15.2738 19.9681C15.7764 19.8883 16.2427 19.662 16.6182 19.3203C16.9934 18.9789 17.262 18.537 17.3964 18.049C17.5307 17.5612 17.5261 17.0446 17.3831 16.5592C17.3066 16.2996 17.1919 16.0537 17.0434 15.8301C18.0637 14.8956 18.81 13.6565 19.1532 12.2502C19.6158 10.355 19.6158 8.3718 19.1532 6.47655C18.5169 3.86979 16.4961 1.83773 13.912 1.25523L13.4648 1.15442C11.6471 0.744692 9.76458 0.744692 7.94691 1.15442L7.49969 1.25523C6.49619 1.48143 5.57763 1.92624 4.79211 2.53842C4.24877 1.24009 3.09478 0.268922 1.67591 0.0156116ZM5.81349 16.9707C5.82726 16.9368 5.84344 16.9045 5.86175 16.8741C6.22466 17.0619 6.60631 17.2184 7.00342 17.3399C6.98547 17.4674 6.93408 17.5847 6.85794 17.6794C6.77908 17.7775 6.67776 17.8464 6.56838 17.8825C6.45927 17.9186 6.34337 17.9215 6.2331 17.8915C6.12259 17.8613 6.01869 17.7982 5.93566 17.705C5.85238 17.6117 5.79414 17.4924 5.77164 17.3604C5.74912 17.2283 5.76405 17.0927 5.81349 16.9707ZM14.355 17.7085C14.2944 17.6139 14.2569 17.5033 14.2472 17.387C14.6435 17.2763 15.0252 17.1311 15.389 16.9547C15.421 17.0064 15.4467 17.0634 15.4647 17.1244C15.5023 17.2523 15.5036 17.3894 15.4681 17.5181C15.4327 17.6467 15.3633 17.7581 15.2721 17.8411C15.1812 17.9238 15.0726 17.975 14.9601 17.9929C14.8478 18.0107 14.7322 17.9953 14.6259 17.9467C14.5194 17.898 14.4242 17.8168 14.355 17.7085ZM8.38668 3.10546C9.91478 2.76101 11.4969 2.76101 13.025 3.10546L13.4722 3.20627C15.2909 3.61624 16.748 5.05691 17.2103 6.95081C17.5914 8.512 17.5967 10.1454 17.2264 11.7087H4.18524C3.81494 10.1454 3.82033 8.512 4.20141 6.9508C4.6637 5.0569 6.12079 3.61624 7.93949 3.20627L8.38668 3.10546ZM5.12596 13.7087H16.2857C15.5871 14.6167 14.5991 15.2664 13.4722 15.5205L13.025 15.6213C11.4969 15.9657 9.91478 15.9657 8.38668 15.6213L7.93949 15.5205C6.81262 15.2664 5.82457 14.6167 5.12596 13.7087ZM12.1416 4.01006C11.5949 3.93195 11.0884 4.31185 11.0103 4.85858C10.9322 5.40532 11.312 5.91185 11.8588 5.98995L11.8996 5.99579C13.2324 6.18619 14.0002 7.12426 14.0002 8C14.0002 8.5523 14.4479 9 15.0002 9C15.5525 9 16.0002 8.5523 16.0002 8C16.0002 5.90804 14.2648 4.31337 12.1824 4.01589L12.1416 4.01006Z" fill="#F5B544"/>
</svg>
