<svg width="20" height="18" viewBox="0 0 20 18" fill="none" xmlns="http://www.w3.org/2000/svg">
<path fill-rule="evenodd" clip-rule="evenodd" d="M2.5 4.5C2.5 2.01472 4.51472 0 7 0C9.48528 0 11.5 2.01472 11.5 4.5C11.5 6.98528 9.48528 9 7 9C4.51472 9 2.5 6.98528 2.5 4.5ZM9.5 4.5C9.5 3.11928 8.38072 2 7 2C5.61928 2 4.5 3.11928 4.5 4.5C4.5 5.88072 5.61928 7 7 7C8.38072 7 9.5 5.88072 9.5 4.5ZM4.27456 10.4223L4.45251 10.3939C6.14016 10.1245 7.85984 10.1245 9.54751 10.3939L9.72563 10.4223C12.1881 10.8154 14 12.9394 14 15.433C14 16.8507 12.8507 18 11.433 18H2.56697C1.14928 18 0 16.8507 0 15.433C0 12.9394 1.81192 10.8154 4.27456 10.4223ZM9.41053 12.3973L9.23229 12.3689C7.75344 12.1329 6.24656 12.1329 4.76761 12.3689L4.58967 12.3973C3.09775 12.6354 2 13.9223 2 15.433C2 15.7461 2.25386 16 2.56697 16H11.433C11.7461 16 12 15.7461 12 15.433C12 13.9223 10.9022 12.6354 9.41053 12.3973ZM13 0C15.4853 0 17.5 2.01472 17.5 4.5C17.5 6.98528 15.4853 9 13 9C12.4477 9 12 8.55229 12 8C12 7.48716 12.386 7.06449 12.8834 7.00673L13 7C14.3807 7 15.5 5.88072 15.5 4.5C15.5 3.11928 14.3807 2 13 2C12.4477 2 12 1.55228 12 1C12 0.447715 12.4477 0 13 0ZM15.2093 10.3814C15.382 10.3814 15.5548 10.3951 15.7256 10.4223C18.1881 10.8154 20 12.9394 20 15.433C20 16.7962 18.9374 17.9112 17.5953 17.9949L17.433 18H15.3899C14.8376 18 14.3899 17.5523 14.3899 17C14.3899 16.4872 14.7759 16.0645 15.2733 16.0067L15.3899 16H17.433C17.7461 16 18 15.7461 18 15.433C18 13.9223 16.9022 12.6354 15.4106 12.3973L15.3103 12.3854L15.2093 12.3814H14.2412C13.6889 12.3814 13.2412 11.9337 13.2412 11.3814C13.2412 10.8686 13.6272 10.4459 14.1246 10.3881L14.2412 10.3814H15.2093Z" fill="#091B3D" fill-opacity="0.4"/>
</svg>
