<svg width="56" height="56" viewBox="0 0 56 56" fill="none" xmlns="http://www.w3.org/2000/svg">
<rect width="56" height="56" rx="16" fill="#F5B544" fill-opacity="0.1"/>
<path fill-rule="evenodd" clip-rule="evenodd" d="M29 19C29 18.4477 28.5523 18 28 18C26.8973 18 25.7974 18.1271 24.7221 18.3793C21.5749 19.1175 19.1175 21.5749 18.3793 24.7221C17.8736 26.8781 17.8736 29.1219 18.3793 31.278C19.1175 34.4251 21.5749 36.8824 24.7221 37.6207C26.8781 38.1264 29.1219 38.1264 31.278 37.6207C34.4251 36.8824 36.8824 34.4251 37.6207 31.278C37.8729 30.2026 38 29.1028 38 28C38 27.4477 37.5523 27 37 27C36.4477 27 36 27.4477 36 28C36 28.9491 35.8907 29.8957 35.6735 30.8212C35.1088 33.2289 33.2289 35.1088 30.8212 35.6735C28.9655 36.1088 27.0345 36.1088 25.1788 35.6735C22.7711 35.1088 20.8912 33.2289 20.3265 30.8212C19.8912 28.9655 19.8912 27.0345 20.3265 25.1788C20.8912 22.7711 22.7711 20.8912 25.1788 20.3265C26.1043 20.1094 27.051 20 28 20C28.5523 20 29 19.5523 29 19ZM34.5 19C32.567 19 31 20.567 31 22.5C31 24.433 32.567 26 34.5 26C36.433 26 38 24.433 38 22.5C38 20.567 36.433 19 34.5 19ZM34.5 21C35.3284 21 36 21.6716 36 22.5C36 23.3284 35.3284 24 34.5 24C33.6716 24 33 23.3284 33 22.5C33 21.6716 33.6716 21 34.5 21Z" fill="#091B3D"/>
</svg>
