<svg width="56" height="56" viewBox="0 0 56 56" fill="none" xmlns="http://www.w3.org/2000/svg">
<rect width="56" height="56" rx="16" fill="#F5B544" fill-opacity="0.1"/>
<path fill-rule="evenodd" clip-rule="evenodd" d="M30.0502 20.2439C28.6915 19.9187 27.2811 19.9187 25.9223 20.2439L25.6993 20.2973C23.2795 20.8766 21.3465 22.8567 20.7503 25.4504C20.4146 26.9107 20.4174 28.4507 20.7537 29.9138C21.3732 32.6091 23.1904 34.827 25.5909 35.8533L25.709 35.9038C26.3236 36.1666 27.0912 35.8717 27.383 35.1259C27.6549 34.4306 28.3224 33.9268 29.1107 33.9268H30.1721C32.5616 33.9268 34.6927 32.203 35.2731 29.6781C35.5756 28.3616 35.5756 26.9879 35.2731 25.6714L35.1842 25.2849C34.6113 22.7926 32.7543 20.8912 30.4313 20.3352L30.0502 20.2439ZM25.4567 18.2989C27.1216 17.9004 28.851 17.9004 30.5158 18.2989L30.8969 18.3901C33.9998 19.1329 36.4001 21.6466 37.1334 24.8369L37.2222 25.2234C37.5926 26.8347 37.5926 28.5148 37.2222 30.1261C36.4474 33.4968 33.5561 35.9268 30.1721 35.9268H29.2163C28.5202 37.5954 26.63 38.4727 24.9228 37.7428L24.8047 37.6923C21.7834 36.4006 19.5589 33.6439 18.8045 30.3618C18.4011 28.6066 18.3971 26.7603 18.8011 25.0024C19.5577 21.7107 22.034 19.1182 25.2337 18.3523L25.4567 18.2989ZM23.6963 25.0579C23.6963 24.5057 24.144 24.0579 24.6963 24.0579H30.7279C31.2802 24.0579 31.7279 24.5057 31.7279 25.0579C31.7279 25.6102 31.2802 26.0579 30.7279 26.0579H24.6963C24.144 26.0579 23.6963 25.6102 23.6963 25.0579ZM23.6963 28.5141C23.6963 27.9618 24.144 27.5141 24.6963 27.5141H28.5346C29.0869 27.5141 29.5346 27.9618 29.5346 28.5141C29.5346 29.0664 29.0869 29.5141 28.5346 29.5141H24.6963C24.144 29.5141 23.6963 29.0664 23.6963 28.5141Z" fill="#091B3D"/>
</svg>
