<svg width="24" height="24" viewBox="0 0 24 24" fill="none" xmlns="http://www.w3.org/2000/svg">
<path fill-rule="evenodd" clip-rule="evenodd" d="M15.7935 2.38043L16.0053 2.32343C16.8645 2.12188 17.7554 2.09627 18.6241 2.24777L18.9945 2.32343C20.2379 2.61509 21.232 3.5434 21.6195 4.79359L21.6765 5.00548C21.878 5.86467 21.9036 6.75542 21.7467 7.65253L21.6765 7.99454C21.3848 9.23793 20.4565 10.2321 19.2063 10.6196L18.9945 10.6766C18.1353 10.8781 17.2444 10.9037 16.3473 10.7468L16.0053 10.6766C14.7619 10.3849 13.7678 9.45659 13.3803 8.2064L13.3233 7.9945C13.0928 7.0115 13.0928 5.98848 13.3233 5.00544C13.6149 3.76205 14.5433 2.76793 15.7935 2.38043ZM18.5659 4.27676L18.2805 4.21803C17.6773 4.11284 17.0587 4.13062 16.4963 4.26191L16.3526 4.30037C15.8125 4.46803 15.4 4.9098 15.2705 5.4621C15.1104 6.14476 15.1104 6.85522 15.2618 7.50363L15.3003 7.64734C15.4679 8.18731 15.9097 8.59984 16.4339 8.72322L16.7192 8.78195C17.3225 8.88715 17.9411 8.86936 18.5035 8.73807L18.6472 8.69961C19.1872 8.53195 19.5998 8.09019 19.7231 7.56609L19.7818 7.28069C19.887 6.67738 19.8692 6.05878 19.738 5.49635L19.6995 5.35265C19.5319 4.81267 19.0901 4.40015 18.5659 4.27676ZM5.00532 2.32343L4.79347 2.38043C3.54328 2.76793 2.61498 3.76204 2.32333 5.00543C2.09275 5.98846 2.09275 7.01152 2.32333 7.99456L2.38033 8.20641C2.76783 9.4566 3.76194 10.3849 5.00533 10.6766L5.3473 10.7468C6.24445 10.9037 7.13524 10.8781 7.99447 10.6766L8.20631 10.6196C9.4565 10.2321 10.3848 9.23795 10.6765 7.99456L10.7467 7.65259C10.9036 6.75543 10.878 5.86464 10.6765 5.00542L10.6195 4.79357C10.232 3.54338 9.23785 2.61508 7.99446 2.32343L7.62411 2.24777C6.75534 2.09627 5.86454 2.12188 5.00532 2.32343ZM7.28054 4.21803L7.56593 4.27676C8.0901 4.40015 8.53186 4.81266 8.69951 5.35266L8.73797 5.49637C8.86927 6.05881 8.88705 6.67737 8.78185 7.28064L8.72312 7.56603C8.59974 8.0902 8.18723 8.53196 7.64723 8.69961L7.50352 8.73807C6.94108 8.86937 6.32251 8.88715 5.71925 8.78195L5.43386 8.72322C4.90969 8.59984 4.46793 8.18733 4.30027 7.64733L4.26181 7.50362C4.11036 6.8552 4.11036 6.14478 4.27048 5.46216C4.40005 4.90979 4.81256 4.46803 5.35256 4.30037L5.49627 4.26191C6.05871 4.13062 6.67727 4.11284 7.28054 4.21803ZM5.00538 13.3234L4.79349 13.3804C3.5433 13.7679 2.61499 14.762 2.32333 16.0054C2.09274 16.9884 2.09274 18.0116 2.32333 18.9946L2.38033 19.2064C2.76783 20.4566 3.76196 21.3849 5.00535 21.6766L5.34736 21.7468C6.24446 21.9037 7.13521 21.8781 7.9944 21.6766L8.2063 21.6196C9.45649 21.2321 10.3848 20.238 10.6765 18.9946L10.7467 18.6526C10.9036 17.7554 10.878 16.8646 10.6765 16.0054L10.6195 15.7936C10.232 14.5434 9.23783 13.615 7.99444 13.3234L7.62406 13.2478C6.75532 13.0963 5.86457 13.1219 5.00538 13.3234ZM7.28059 15.2181L7.56599 15.2768C8.09009 15.4001 8.53185 15.8126 8.69951 16.3527L8.73797 16.4964C8.86927 17.0588 8.88705 17.6774 8.78185 18.2806L8.72312 18.566C8.59974 19.0902 8.18721 19.532 7.64724 19.6996L7.50353 19.7381C6.94111 19.8693 6.3225 19.8871 5.7192 19.7819L5.4338 19.7232C4.9097 19.5999 4.46793 19.1873 4.30027 18.6473L4.26181 18.5036C4.11036 17.8552 4.11036 17.1448 4.27048 16.4622C4.40005 15.9098 4.81257 15.468 5.35255 15.3004L5.49625 15.2619C6.05868 15.1307 6.67729 15.1129 7.28059 15.2181ZM16.0054 13.3234L15.7935 13.3804C14.5433 13.7679 13.6149 14.7621 13.3233 16.0054C13.0928 16.9885 13.0928 18.0115 13.3233 18.9945L13.3803 19.2064C13.7678 20.4566 14.762 21.3849 16.0053 21.6766L16.3473 21.7468C17.2444 21.9037 18.1352 21.8781 18.9944 21.6766L19.2063 21.6196C20.4565 21.2321 21.3848 20.2379 21.6765 18.9945L21.7467 18.6525C21.9036 17.7554 21.878 16.8646 21.6765 16.0055L21.6195 15.7936C21.232 14.5434 20.2378 13.615 18.9944 13.3234L18.6241 13.2478C17.7553 13.0963 16.8645 13.1219 16.0054 13.3234ZM18.2806 15.2181L18.566 15.2768C19.0901 15.4001 19.5319 15.8127 19.6995 16.3526L19.738 16.4964C19.8692 17.0588 19.887 17.6774 19.7818 18.2807L19.7231 18.5661C19.5998 19.0902 19.1872 19.532 18.6472 19.6996L18.5035 19.7381C17.9411 19.8693 17.3225 19.8871 16.7192 19.7819L16.4338 19.7232C15.9097 19.5999 15.4679 19.1873 15.3003 18.6473L15.2618 18.5036C15.1104 17.8553 15.1104 17.1447 15.2705 16.4621C15.4 15.9098 15.8126 15.468 16.3525 15.3004L16.4963 15.2619C17.0587 15.1307 17.6773 15.1129 18.2806 15.2181Z" fill="#091B3D" fill-opacity="0.4"/>
</svg>
