<svg width="24" height="49" viewBox="0 0 24 49" fill="none" xmlns="http://www.w3.org/2000/svg">
<rect width="24" height="24" rx="8" fill="#2772F0"/>
<path d="M11.9142 16.168C13.9062 16.168 15.2382 15.208 15.2382 13.768C15.2382 12.868 14.6622 12.016 13.7862 11.644C14.5182 11.224 15.0102 10.48 15.0102 9.796C15.0102 8.476 13.7742 7.6 11.9142 7.6C10.1382 7.6 8.96217 8.728 8.96217 10.408H10.3182C10.3182 9.484 10.9542 8.872 11.9142 8.872C12.9102 8.872 13.5822 9.316 13.5822 9.976C13.5822 10.624 12.9102 11.056 11.9142 11.056H11.1462V12.328H11.9142C13.0662 12.328 13.8342 12.844 13.8342 13.612C13.8342 14.38 13.0662 14.896 11.9142 14.896C10.8462 14.896 10.1382 14.368 10.1382 13.564H8.75817C8.75817 15.124 10.0182 16.168 11.9142 16.168ZM2.98364 32H4.42364V27.956C4.42364 27.44 4.85564 27.104 5.51564 27.104C6.17564 27.104 6.60764 27.44 6.60764 27.956V32H8.04764V27.956C8.04764 27.44 8.47964 27.104 9.13964 27.104C9.79964 27.104 10.2316 27.44 10.2316 27.956V32H11.6716V27.812C11.6716 26.624 10.7116 25.832 9.28364 25.832C8.62364 25.832 7.90364 26.12 7.48364 26.552C7.07564 26.12 6.43964 25.832 5.88764 25.832C5.31164 25.832 4.78364 26.084 4.42364 26.54V26H2.98364V32ZM12.7805 25.088H14.2205V23.768H12.7805V25.088ZM12.7805 32H14.2205V26H12.7805V32ZM15.3235 32H16.7635V28.436C16.7635 27.632 17.3515 27.104 18.2275 27.104C19.1035 27.104 19.6915 27.632 19.6915 28.436V32H21.1315V28.268C21.1315 26.804 20.0395 25.832 18.3955 25.832C17.8075 25.832 17.1595 26.072 16.7635 26.444V26H15.3235V32ZM12.0023 48.168C13.6703 48.168 14.7863 47.376 14.7863 46.188C14.7863 45.096 14.1503 44.64 12.1463 44.22C11.2943 44.028 11.0183 43.872 11.0183 43.62C11.0183 43.272 11.4143 43.032 12.0023 43.032C12.5303 43.032 13.0103 43.308 13.1903 43.716L14.5103 43.392C14.1623 42.456 13.1543 41.832 12.0023 41.832C10.5503 41.832 9.57825 42.576 9.57825 43.692C9.57825 44.688 10.1303 45.084 11.8703 45.48C12.9863 45.696 13.3463 45.9 13.3463 46.188C13.3463 46.656 12.8063 46.968 12.0023 46.968C11.1983 46.968 10.6223 46.56 10.5743 45.96H9.21825C9.26625 47.28 10.3823 48.168 12.0023 48.168Z" fill="white"/>
</svg>
