<svg width="56" height="56" viewBox="0 0 56 56" fill="none" xmlns="http://www.w3.org/2000/svg">
<rect opacity="0.1" width="56" height="56" rx="16" fill="#F5B544"/>
<path fill-rule="evenodd" clip-rule="evenodd" d="M29.5527 20.2893C27.9082 19.9036 26.1968 19.9036 24.5524 20.2893C22.4371 20.7855 20.7855 22.4371 20.2893 24.5524C19.9036 26.1968 19.9036 27.9082 20.2893 29.5527C20.7855 31.668 22.4371 33.3196 24.5524 33.8157C26.1968 34.2015 27.9082 34.2015 29.5527 33.8157C31.668 33.3196 33.3196 31.668 33.8157 29.5527C34.2015 27.9082 34.2015 26.1968 33.8157 24.5524C33.3196 22.4371 31.668 20.7855 29.5527 20.2893ZM24.0956 18.3422C26.0405 17.8859 28.0646 17.8859 30.0094 18.3422C32.8642 19.0118 35.0933 21.2408 35.7629 24.0956C36.2191 26.0405 36.2191 28.0646 35.7629 30.0094C35.5073 31.0989 35.0247 32.0972 34.3668 32.9526L37.7071 36.2929C38.0976 36.6834 38.0976 37.3166 37.7071 37.7071C37.3166 38.0976 36.6834 38.0976 36.2929 37.7071L32.9526 34.3668C32.0972 35.0247 31.0989 35.5073 30.0094 35.7629C28.0646 36.2191 26.0405 36.2191 24.0956 35.7629C21.2408 35.0933 19.0118 32.8642 18.3422 30.0094C17.8859 28.0646 17.8859 26.0405 18.3422 24.0956C19.0118 21.2408 21.2408 19.0118 24.0956 18.3422Z" fill="#091B3D"/>
</svg>
